<?xml version="1.0" encoding="utf-8"?>
<!-- Generator: Adobe Illustrator 17.0.0, SVG Export Plug-In . SVG Version: 6.00 Build 0)  -->
<!DOCTYPE svg PUBLIC "-//W3C//DTD SVG 1.1//EN" "http://www.w3.org/Graphics/SVG/1.1/DTD/svg11.dtd">
<svg version="1.1" id="图层_1" xmlns="http://www.w3.org/2000/svg" xmlns:xlink="http://www.w3.org/1999/xlink" x="0px" y="0px"
	 width="10px" height="10px" viewBox="0 0 10 10" enable-background="new 0 0 10 10" xml:space="preserve">
<path fill-rule="evenodd" clip-rule="evenodd" fill="#fff" d="M2.154,0.319C3.032,0.314,3.07,0.895,3.423,1.397
	c0.233,0.332,0.543,0.659,0.906,0.859c0.28-0.259,1.061-0.256,1.342,0c0.362-0.204,0.671-0.525,0.905-0.859
	c0.15-0.262,0.303-0.524,0.453-0.786C7.418,0.093,8.15,0.379,8.463,0.739c0.129,0.152,0.279,0.312,0.361,0.512
	c0.447,1.102-1.055,1.71-1.83,1.882C6.602,3.146,6.209,3.158,5.815,3.17c0.005-0.013,0.012-0.024,0.018-0.037
	c0.528-0.087,1.446-0.558,1.776-0.877c0.182-0.174,0.363-0.524,0.072-0.731C7.324,1.27,6.514,2.057,6.232,2.22
	C6.057,2.281,5.882,2.342,5.707,2.402C5.517,2.661,5.979,3.055,5.363,3.17c-0.24,0.045-0.755,0.037-0.907-0.055
	C4.146,2.927,4.448,2.614,4.293,2.402C4.118,2.342,3.942,2.281,3.768,2.22C3.465,2.046,2.569,1.146,2.227,1.617
	C2.013,1.911,2.306,2.178,2.481,2.312c0.295,0.226,0.65,0.43,1.015,0.584C3.725,2.987,3.955,3.079,4.184,3.17
	C3.003,3.194,2.2,2.998,1.557,2.494C0.556,1.71,1.386,0.713,2.154,0.319z M4.293,6.038c-1.312,0-2.623,0-3.933,0
	C0.354,5.383,0.208,4.194,0.506,3.792c0.327-0.443,2.085-0.274,2.881-0.274C3.689,3.523,3.991,3.53,4.293,3.536
	C4.293,4.37,4.293,5.205,4.293,6.038z M9.639,6.038c-1.309,0-2.623,0-3.932,0c0.006-0.84,0.012-1.681,0.019-2.521
	c0.88-0.007,3.431-0.186,3.769,0.274C9.793,4.196,9.645,5.381,9.639,6.038z M0.361,7.117c1.31,0,2.621,0,3.933,0
	c0,0.842,0,1.682,0,2.523C3.387,9.648,0.826,9.834,0.487,9.346C0.246,9,0.355,7.711,0.361,7.117z M5.707,7.117
	c1.309,0,2.624,0,3.932,0c0.006,0.59,0.115,1.887-0.127,2.229C9.17,9.836,6.617,9.646,5.707,9.641
	C5.707,8.799,5.707,7.959,5.707,7.117z"/>
</svg>
