<?xml version="1.0" encoding="utf-8"?>
<!-- Generator: Adobe Illustrator 17.0.0, SVG Export Plug-In . SVG Version: 6.00 Build 0)  -->
<!DOCTYPE svg PUBLIC "-//W3C//DTD SVG 1.1//EN" "http://www.w3.org/Graphics/SVG/1.1/DTD/svg11.dtd">
<svg version="1.1" id="图层_1" xmlns="http://www.w3.org/2000/svg" xmlns:xlink="http://www.w3.org/1999/xlink" x="0px" y="0px"
	 width="10px" height="10px" viewBox="0 0 10 10" enable-background="new 0 0 10 10" xml:space="preserve">
<path fill-rule="evenodd" clip-rule="evenodd" d="M6.199,0.333c0.012,0,0.025,0,0.037,0c0.127,0.13,0.152,0.355,0.221,0.542
	C6.678,1.471,6.9,2.067,7.119,2.662c0.777,0.074,0.939,0.982,0.518,1.507c0.27,0.776,0.541,1.553,0.811,2.33
	c-0.25,0.047-0.576-0.294-0.773-0.402C7.234,5.855,6.68,5.77,6.089,5.676c-0.581-0.092-1.255,0.025-1.696,0.14
	C4.132,5.884,3.874,6.022,3.583,5.956C3.25,5.467,3.133,4.746,2.919,4.169C2.865,4.023,2.655,3.714,2.735,3.539
	c0.071-0.155,0.383-0.18,0.553-0.246c0.453-0.176,0.897-0.406,1.271-0.666c0.528-0.366,1.032-0.906,1.309-1.507
	C5.987,0.861,6.039,0.549,6.199,0.333z M8.484,1.418c0.049,0.029,0.098,0.058,0.146,0.088C8.367,1.851,8.104,2.195,7.84,2.54
	C7.795,2.505,7.754,2.47,7.711,2.435C7.729,2.417,7.746,2.4,7.764,2.382C8.006,2.062,8.244,1.74,8.484,1.418z M9.387,2.767
	c0.018,0,0.037,0,0.057,0C9.455,2.82,9.467,2.872,9.479,2.926c-0.012,0-0.023,0-0.035,0C9.018,3.042,8.594,3.159,8.17,3.276
	C8.158,3.223,8.146,3.17,8.135,3.118C8.553,3.001,8.969,2.884,9.387,2.767z M2.458,3.767c0.24,0.157,0.602,1.705,0.902,2.557
	c0.09,0.325-0.154,0.617-0.036,0.947c0.135,0.228,0.27,0.455,0.406,0.683c0.057,0.139-0.037,0.301,0,0.42
	c0.044,0.145,0.254,0.236,0.294,0.421c0.078,0.362-0.418,0.534-0.719,0.49c-0.392-0.275-0.606-1.842-0.92-2.33
	C2.182,6.641,1.561,6.893,1.243,6.656C0.861,6.374,0.249,4.798,0.653,4.309C1.259,3.591,2.219,3.609,2.458,3.767z M8.244,3.994
	c0.4,0.205,0.799,0.409,1.199,0.613C9.43,4.62,9.418,4.631,9.404,4.642C9.387,4.678,9.369,4.712,9.35,4.747
	C8.957,4.542,8.564,4.338,8.17,4.134C8.195,4.087,8.221,4.041,8.244,3.994z"/>
</svg>
