<?xml version="1.0" encoding="utf-8"?>
<!-- Generator: Adobe Illustrator 17.0.0, SVG Export Plug-In . SVG Version: 6.00 Build 0)  -->
<!DOCTYPE svg PUBLIC "-//W3C//DTD SVG 1.1//EN" "http://www.w3.org/Graphics/SVG/1.1/DTD/svg11.dtd">
<svg version="1.1" id="图层_1" xmlns="http://www.w3.org/2000/svg" xmlns:xlink="http://www.w3.org/1999/xlink" x="0px" y="0px"
	 width="1600px" height="1600px" viewBox="0 0 1600 1600" enable-background="new 0 0 1600 1600" xml:space="preserve">
<path fill="#ffffff" d="M1400.004,499.992c-55.03,0-100.001,45.02-100.001,100.001v400.003c0,54.98,44.97,100.001,100.001,100.001
	s100.001-45.02,100.001-100.001V599.993C1500.005,545.013,1455.035,499.992,1400.004,499.992z M199.996,499.992
	c-55.03,0-100.001,45.02-100.001,100.001v400.003c0,54.98,44.97,100.001,100.001,100.001s100.001-45.02,100.001-100.001V599.993
	C299.997,545.013,255.026,499.992,199.996,499.992z M349.997,1149.997c0,82.816,67.14,150.001,150.001,150.001h50v200.001
	c0,54.98,44.97,100.001,100.001,100.001S750,1554.98,750,1499.999v-200.001H850v200.001c0,54.98,44.97,100.001,100.001,100.001
	s100.001-45.02,100.001-100.001v-200.001h50c82.861,0,150.001-67.186,150.001-150.001V599.993H349.997V1149.997z M985.306,139.835
	l63.281-121.586c3.22-6.1,0.78-13.67-5.275-16.845c-6.15-3.175-13.72-0.78-16.895,5.325l-64.255,123.386
	C911.866,110.685,857.18,99.99,800,99.99s-111.866,10.695-162.161,30.125L573.583,6.729c-3.175-6.105-10.745-8.5-16.895-5.325
	c-6.055,3.175-8.495,10.745-5.275,16.845l63.28,121.586c-141.601,64.06-244.142,199.316-261.912,360.158h894.436
	C1229.448,339.151,1126.907,203.895,985.306,139.835z M599.999,422.502c-40.04,0-72.51-32.47-72.51-72.511s32.47-72.51,72.51-72.51
	s72.51,32.47,72.51,72.51S640.039,422.502,599.999,422.502z M1000.001,422.502c-40.04,0-72.51-32.47-72.51-72.511
	s32.47-72.51,72.51-72.51c40.04,0,72.511,32.47,72.511,72.51S1040.042,422.502,1000.001,422.502z"/>
</svg>
