<?xml version="1.0" encoding="utf-8"?>
<!-- Generator: Adobe Illustrator 17.0.0, SVG Export Plug-In . SVG Version: 6.00 Build 0)  -->
<!DOCTYPE svg PUBLIC "-//W3C//DTD SVG 1.1//EN" "http://www.w3.org/Graphics/SVG/1.1/DTD/svg11.dtd">
<svg version="1.1" id="图层_1" xmlns="http://www.w3.org/2000/svg" xmlns:xlink="http://www.w3.org/1999/xlink" x="0px" y="0px"
	 width="1600px" height="1600px" viewBox="0 0 1600 1600" enable-background="new 0 0 1600 1600" xml:space="preserve">
<path fill="#ffffff" d="M1461.733,1172.715c-2.013,6.098-33.463,115.684-110.739,228.368
	c-66.884,97.202-136.044,195.189-245.273,196.908c-107.416,1.888-141.79-64.021-264.432-64.021
	c-122.485,0-160.992,62.302-262.508,65.909c-104.946,4.289-185.698-106.178-252.835-202.907
	C188.739,1198.826,83.091,835.473,224.781,591.968c69.71-121.834,195.016-199.279,331.469-201.397
	c102.827-1.94,200.662,69.585,263.117,69.585c64.163,0,182.515-86.547,307.369-73.596c52.276,2.224,198.502,21.829,292.715,158.229
	c-7.414,5.038-174.96,103.808-173.094,304.827C1248.874,1092.292,1459.467,1171.887,1461.733,1172.715 M1045.034,256.567
	c56.303-68.604,93.3-162.911,83.568-256.567c-80.391,3.152-178.336,53.33-236.548,121.53
	c-51.469,59.501-96.834,155.276-84.182,247.842C897.192,374.793,989.035,322.649,1045.034,256.567"/>
</svg>
