<?xml version="1.0" encoding="utf-8"?>
<!-- Generator: Adobe Illustrator 17.0.0, SVG Export Plug-In . SVG Version: 6.00 Build 0)  -->
<!DOCTYPE svg PUBLIC "-//W3C//DTD SVG 1.1//EN" "http://www.w3.org/Graphics/SVG/1.1/DTD/svg11.dtd">
<svg version="1.1" id="图层_1" xmlns="http://www.w3.org/2000/svg" xmlns:xlink="http://www.w3.org/1999/xlink" x="0px" y="0px"
	 width="16px" height="16px" viewBox="0 0 16 16" enable-background="new 0 0 16 16" xml:space="preserve">
<path fill="#FFFFFF" d="M16,8c0,4.418-3.582,8-8,8l0,0c-4.418,0-8-3.582-8-8l0,0c0-4.418,3.582-8,8-8l0,0C12.418,0,16,3.582,16,8
	L16,8z"/>
<path fill="#FFFFFF" d="M16,15c0,0.552-0.448,1-1,1H1c-0.552,0-1-0.448-1-1V1c0-0.552,0.448-1,1-1h14c0.552,0,1,0.448,1,1V15z"/>
<path fill="#D0D0D0" d="M16,14c0,1.105-0.895,2-2,2H2c-1.105,0-2-0.895-2-2V2c0-1.105,0.895-2,2-2h12c1.105,0,2,0.895,2,2V14z"/>
</svg>
