<?xml version="1.0" encoding="utf-8"?>
<!-- Generator: Adobe Illustrator 17.0.0, SVG Export Plug-In . SVG Version: 6.00 Build 0)  -->
<!DOCTYPE svg PUBLIC "-//W3C//DTD SVG 1.1//EN" "http://www.w3.org/Graphics/SVG/1.1/DTD/svg11.dtd">
<svg version="1.1" id="图层_1" xmlns="http://www.w3.org/2000/svg" xmlns:xlink="http://www.w3.org/1999/xlink" x="0px" y="0px"
	 width="16px" height="16px" viewBox="0 0 16 16" enable-background="new 0 0 16 16" xml:space="preserve">
<path fill="#FFFFFF" d="M16,14c0,1.105-0.895,2-2,2H2c-1.105,0-2-0.895-2-2V2c0-1.105,0.895-2,2-2h12c1.105,0,2,0.895,2,2V14z"/>
<polygon fill="#FFFFFF" points="14.264,10.84 14.264,10.84 14.42,10.84 14.42,10.84 14.42,10.84 14.42,10.84 14.264,10.84 
	14.264,10.84 "/>
<path fill="#24B44D" d="M16,14c0,1.105-0.895,2-2,2H2c-1.105,0-2-0.895-2-2V2c0-1.105,0.895-2,2-2h12c1.105,0,2,0.895,2,2V14z"/>
<line fill="none" stroke="#FFFFFF" stroke-width="3" stroke-miterlimit="10" x1="13.054" y1="3.142" x2="6.276" y2="9.959"/>
<line fill="none" stroke="#FFFFFF" stroke-width="3" stroke-miterlimit="10" x1="2.688" y1="6.842" x2="7.105" y2="11.258"/>
</svg>
