<?xml version="1.0" encoding="utf-8"?>
<!-- Generator: Adobe Illustrator 17.0.0, SVG Export Plug-In . SVG Version: 6.00 Build 0)  -->
<!DOCTYPE svg PUBLIC "-//W3C//DTD SVG 1.1//EN" "http://www.w3.org/Graphics/SVG/1.1/DTD/svg11.dtd">
<svg version="1.1" id="图层_1" xmlns="http://www.w3.org/2000/svg" xmlns:xlink="http://www.w3.org/1999/xlink" x="0px" y="0px"
	 width="10px" height="10px" viewBox="0 0 10 10" enable-background="new 0 0 10 10" xml:space="preserve">
<g>
	<g>
		<path fill-rule="evenodd" clip-rule="evenodd" d="M4.373,2.451h2.825V2.292c0-0.792-0.633-1.434-1.413-1.434h-4.08
			c-0.78,0-1.412,0.642-1.412,1.434v1.912c0,0.792,0.632,1.434,1.412,1.434L1.078,7.23l1.726-1.096V4.044
			C2.803,3.164,3.506,2.451,4.373,2.451z M8.452,2.769h-4.08c-0.693,0-1.255,0.571-1.255,1.275v2.229
			c0,0.705,0.562,1.275,1.255,1.275h1.883l2.511,1.594L8.139,7.549h0.313c0.694,0,1.256-0.57,1.256-1.275V4.044
			C9.708,3.34,9.146,2.769,8.452,2.769z"/>
	</g>
</g>
</svg>
