<?xml version="1.0" encoding="utf-8"?>
<!-- Generator: Adobe Illustrator 17.0.0, SVG Export Plug-In . SVG Version: 6.00 Build 0)  -->
<!DOCTYPE svg PUBLIC "-//W3C//DTD SVG 1.1//EN" "http://www.w3.org/Graphics/SVG/1.1/DTD/svg11.dtd">
<svg version="1.1" id="图层_1" xmlns="http://www.w3.org/2000/svg" xmlns:xlink="http://www.w3.org/1999/xlink" x="0px" y="0px"
	 width="100px" height="100px" viewBox="0 0 100 100" enable-background="new 0 0 100 100" xml:space="preserve">
<path fill-rule="evenodd" clip-rule="evenodd" fill="none" d="M-135.003,165.62c-60.256-100.095-24.07-232.424,80.814-295.563
	c104.892-63.144,238.771-33.192,299.026,66.903c51.557,85.644,32.449,194.856-39.848,264.171c26.101,27.936,60.205,58.87,89.393,67
	c-34.31,20.766-95.101-3.534-142.101-29.043C49.337,293.315-76.977,262.011-135.003,165.62z"/>
<path fill-rule="evenodd" clip-rule="evenodd" d="M81.509,68.008c-3.653-1.064-7.901-4.924-11.159-8.412
	c9.102-8.733,11.507-22.491,5.017-33.28c-7.586-12.61-24.439-16.383-37.645-8.428c-13.204,7.954-17.759,24.625-10.174,37.233
	c7.305,12.143,23.206,16.088,36.167,9.256c5.827,3.166,13.337,6.178,17.688,3.77c-6.749,8.83-15.256,16.025-20.916,21.691
	c-2.812,2.889-5.627,5.779-8.438,8.668c-0.067-0.059-0.136-0.119-0.203-0.178c-0.068,0.059-0.137,0.119-0.203,0.178
	c-2.813-2.889-5.627-5.779-8.441-8.668C31.732,78.354,8.564,60.596,12.038,35.664c0.294-2.835,2.52-13.633,12.336-23.186
	C31.92,4.821,43.418,1.643,48.396,1.209c1.159-0.127,2.31-0.194,3.45-0.209c1.139,0.016,2.289,0.083,3.448,0.209
	c4.977,0.434,16.474,3.612,24.021,11.268c9.815,9.553,12.04,20.351,12.334,23.186C93.398,48.229,88.384,58.971,81.509,68.008z"/>
</svg>
