<?xml version="1.0" encoding="utf-8"?>
<!-- Generator: Adobe Illustrator 17.0.0, SVG Export Plug-In . SVG Version: 6.00 Build 0)  -->
<!DOCTYPE svg PUBLIC "-//W3C//DTD SVG 1.1//EN" "http://www.w3.org/Graphics/SVG/1.1/DTD/svg11.dtd">
<svg version="1.1" id="图层_1" xmlns="http://www.w3.org/2000/svg" xmlns:xlink="http://www.w3.org/1999/xlink" x="0px" y="0px"
	 width="10px" height="10px" viewBox="0 0 10 10" enable-background="new 0 0 10 10" xml:space="preserve">
<g>
	<g>
		<path fill-rule="evenodd" fill="#fff" clip-rule="evenodd" d="M6.602,5.511C6.467,5.465,6.327,5.424,6.18,5.395
			c0.525-0.322,0.89-0.969,0.89-1.724c0-1.074-0.729-1.944-1.626-1.944c-0.898,0-1.626,0.87-1.626,1.944
			c0,0.755,0.364,1.402,0.89,1.724C3.681,5.602,2.93,6.221,2.93,6.96c0,0.909,1.125,1.646,2.514,1.646
			c0.856,0,1.612-0.282,2.065-0.711C7.074,7.343,6.478,6.503,6.478,6.039C6.478,5.851,6.522,5.673,6.602,5.511z M8.252,4.418
			c-0.815,0-1.479,0.593-1.479,1.322c0,0.571,0.902,1.712,1.297,2.186C8.113,7.977,8.18,8.007,8.252,8.007
			c0.072,0,0.139-0.03,0.182-0.081C8.828,7.452,9.73,6.311,9.73,5.74C9.73,5.011,9.068,4.418,8.252,4.418z M8.252,6.511
			c-0.327,0-0.59-0.267-0.59-0.598c0-0.33,0.263-0.599,0.59-0.599c0.327,0,0.591,0.269,0.591,0.599
			C8.843,6.244,8.579,6.511,8.252,6.511z M4.183,5.143C3.931,4.817,3.485,4.567,2.944,4.458c0.27-0.166,0.477-0.443,0.604-0.773
			C3.533,3.582,3.521,3.479,3.521,3.372c0-0.252,0.043-0.492,0.116-0.713C3.496,1.953,2.97,1.427,2.339,1.427
			c-0.74,0-1.34,0.719-1.34,1.606c0,0.624,0.3,1.159,0.734,1.425C0.887,4.629,0.269,5.14,0.269,5.752
			c0,0.749,0.926,1.358,2.07,1.358c0.138,0,0.273-0.01,0.403-0.026c-0.063-0.13-0.108-0.268-0.108-0.423
			C2.634,5.977,3.274,5.391,4.183,5.143z"/>
	</g>
</g>
</svg>
