<?xml version="1.0" encoding="utf-8"?>
<!-- Generator: Adobe Illustrator 17.0.0, SVG Export Plug-In . SVG Version: 6.00 Build 0)  -->
<!DOCTYPE svg PUBLIC "-//W3C//DTD SVG 1.1//EN" "http://www.w3.org/Graphics/SVG/1.1/DTD/svg11.dtd">
<svg version="1.1" id="图层_1" xmlns="http://www.w3.org/2000/svg" xmlns:xlink="http://www.w3.org/1999/xlink" x="0px" y="0px"
	 width="10px" height="10px" viewBox="0 0 10 10" enable-background="new 0 0 10 10" xml:space="preserve">
<g>
	<g>
		<path fill-rule="evenodd" fill="#fff" clip-rule="evenodd" d="M5.872,5.736C5.528,5.553,5.138,5.407,4.705,5.319
			c0.727-0.448,1.23-1.348,1.23-2.397c0-1.493-1.005-2.703-2.246-2.703c-1.24,0-2.245,1.209-2.245,2.703
			c0,1.05,0.502,1.95,1.229,2.397C1.256,5.606,0.219,6.466,0.219,7.495c0,1.264,1.553,2.286,3.47,2.286
			c1.557,0,2.858-0.679,3.297-1.609c-0.52-0.655-1.163-1.567-1.163-2.086C5.823,5.965,5.842,5.849,5.872,5.736z M7.967,4.18
			c-1.002,0-1.814,0.706-1.814,1.576c0,0.68,1.107,2.042,1.592,2.605c0.053,0.061,0.135,0.097,0.223,0.097s0.17-0.036,0.223-0.097
			c0.486-0.563,1.592-1.926,1.592-2.605C9.781,4.886,8.969,4.18,7.967,4.18z M7.967,6.678c-0.4,0-0.727-0.321-0.727-0.714
			c0-0.395,0.326-0.714,0.727-0.714s0.727,0.319,0.727,0.714C8.693,6.356,8.367,6.678,7.967,6.678z"/>
	</g>
</g>
</svg>
