<?xml version="1.0" encoding="utf-8"?>
<!-- Generator: Adobe Illustrator 17.0.0, SVG Export Plug-In . SVG Version: 6.00 Build 0)  -->
<!DOCTYPE svg PUBLIC "-//W3C//DTD SVG 1.1//EN" "http://www.w3.org/Graphics/SVG/1.1/DTD/svg11.dtd">
<svg version="1.1" id="图层_1" xmlns="http://www.w3.org/2000/svg" xmlns:xlink="http://www.w3.org/1999/xlink" x="0px" y="0px"
	 width="10px" height="10px" viewBox="0 0 10 10" enable-background="new 0 0 10 10" xml:space="preserve">
<g>
	<g>
		<path fill-rule="evenodd" fill="#fff" clip-rule="evenodd" d="M4.328,5.127C4.118,5.004,3.93,4.839,3.772,4.638
			C3.686,4.615,3.6,4.59,3.509,4.573C3.56,4.543,3.6,4.498,3.648,4.462C3.409,4.088,3.264,3.629,3.264,3.127
			c0-0.677,0.263-1.277,0.669-1.691C3.625,1.089,3.202,0.874,2.735,0.874c-0.945,0-1.711,0.878-1.711,1.96
			c0,0.761,0.383,1.414,0.938,1.739C0.881,4.781,0.091,5.404,0.091,6.15c0,0.873,1.08,1.581,2.446,1.646
			C2.333,7.538,2.207,7.25,2.207,6.941C2.207,6.084,3.103,5.367,4.328,5.127z M6.085,5.578c0-0.648,0.466-1.2,1.121-1.423
			c0.14-0.309,0.232-0.652,0.232-1.027c0-1.245-0.867-2.254-1.938-2.254c-1.072,0-1.94,1.009-1.94,2.254
			c0,0.876,0.435,1.627,1.063,2c-1.225,0.24-2.121,0.956-2.121,1.813c0,1.054,1.342,1.909,2.998,1.909
			c0.914,0,1.722-0.267,2.271-0.677C7.721,8.159,7.665,8.151,7.631,8.112C7.161,7.563,6.085,6.24,6.085,5.578z M8.145,4.046
			c-0.971,0-1.763,0.686-1.763,1.531c0,0.663,1.076,1.986,1.546,2.535c0.052,0.06,0.132,0.094,0.217,0.094
			c0.086,0,0.166-0.034,0.217-0.095C8.832,7.563,9.908,6.24,9.908,5.578C9.908,4.732,9.119,4.046,8.145,4.046z M8.145,6.474
			c-0.391,0-0.706-0.311-0.706-0.694c0-0.383,0.315-0.694,0.706-0.694c0.39,0,0.705,0.311,0.705,0.694
			C8.85,6.163,8.534,6.474,8.145,6.474z"/>
	</g>
</g>
</svg>
