<?xml version="1.0" encoding="utf-8"?>
<!-- Generator: Adobe Illustrator 17.0.0, SVG Export Plug-In . SVG Version: 6.00 Build 0)  -->
<!DOCTYPE svg PUBLIC "-//W3C//DTD SVG 1.1//EN" "http://www.w3.org/Graphics/SVG/1.1/DTD/svg11.dtd">
<svg version="1.1" id="图层_1" xmlns="http://www.w3.org/2000/svg" xmlns:xlink="http://www.w3.org/1999/xlink" x="0px" y="0px"
	 width="10px" height="10px" viewBox="0 0 10 10" enable-background="new 0 0 10 10" xml:space="preserve">
<g>
	<g>
		<path fill="#fff" fill-rule="evenodd" clip-rule="evenodd" d="M5.162,4.681l0.642-0.65L4.946,3.163L4.304,3.814
			c-0.146-0.083-0.3-0.155-0.465-0.202V2.698H2.628v0.915c-0.161,0.046-0.31,0.117-0.453,0.197L1.487,3.111L0.614,3.997l0.687,0.696
			c-0.08,0.146-0.15,0.297-0.196,0.46H0.206v1.228h0.899c0.047,0.167,0.119,0.323,0.201,0.472L0.664,7.502L1.521,8.37l0.643-0.651
			c0.146,0.082,0.3,0.154,0.464,0.202v0.914h1.211V7.921C4,7.875,4.149,7.804,4.292,7.724L4.98,8.422l0.873-0.886L5.167,6.841
			c0.079-0.146,0.149-0.297,0.196-0.46h0.9V5.153h-0.9C5.315,4.985,5.244,4.83,5.162,4.681z M3.234,6.79
			c-0.557,0-1.01-0.459-1.01-1.023c0-0.565,0.453-1.023,1.01-1.023s1.009,0.458,1.009,1.023C4.243,6.331,3.791,6.79,3.234,6.79z
			 M9.794,3.619V2.8H9.188C9.156,2.69,9.109,2.588,9.056,2.49l0.433-0.438l-0.57-0.579l-0.43,0.435
			C8.392,1.854,8.29,1.806,8.181,1.774v-0.61H7.373v0.609C7.266,1.804,7.165,1.852,7.07,1.905L6.611,1.44L6.029,2.03l0.462,0.469
			C6.439,2.594,6.394,2.693,6.363,2.8H5.757v0.818h0.606c0.031,0.11,0.078,0.212,0.131,0.311L6.062,4.367l0.57,0.579l0.429-0.435
			c0.098,0.056,0.201,0.104,0.312,0.136v0.608h0.808V4.646c0.106-0.031,0.205-0.078,0.3-0.131l0.459,0.465l0.582-0.59L9.06,3.922
			c0.052-0.096,0.099-0.196,0.129-0.303H9.794z M7.775,3.892c-0.372,0-0.673-0.306-0.673-0.683c0-0.376,0.301-0.682,0.673-0.682
			c0.371,0,0.673,0.305,0.673,0.682C8.448,3.586,8.146,3.892,7.775,3.892z"/>
	</g>
</g>
</svg>
