<?xml version="1.0" encoding="utf-8"?>
<!-- Generator: Adobe Illustrator 17.0.0, SVG Export Plug-In . SVG Version: 6.00 Build 0)  -->
<!DOCTYPE svg PUBLIC "-//W3C//DTD SVG 1.1//EN" "http://www.w3.org/Graphics/SVG/1.1/DTD/svg11.dtd">
<svg version="1.1" id="图层_1" xmlns="http://www.w3.org/2000/svg" xmlns:xlink="http://www.w3.org/1999/xlink" x="0px" y="0px"
	 width="10px" height="10px" viewBox="0 0 10 10" enable-background="new 0 0 10 10" xml:space="preserve">
<g>
	<g>
		<path fill-rule="evenodd" fill="#fff" clip-rule="evenodd" d="M10,4.313V3.292H9.199C9.158,3.155,9.096,3.026,9.025,2.904l0.57-0.546
			L8.842,1.637L8.277,2.179C8.148,2.11,8.014,2.049,7.869,2.01V1.25H6.803v0.761C6.662,2.05,6.533,2.112,6.408,2.177L5.799,1.595
			L5.031,2.33l0.285,0.273L4.879,3.027C4.705,2.933,4.522,2.851,4.326,2.796V1.755H2.884v1.041C2.693,2.849,2.516,2.93,2.345,3.021
			L1.526,2.227L0.487,3.235l0.817,0.793C1.21,4.194,1.126,4.367,1.071,4.553h-1.07v1.399h1.069c0.057,0.19,0.142,0.369,0.24,0.538
			L0.547,7.231l1.019,0.989l0.765-0.742c0.174,0.094,0.356,0.176,0.553,0.23V8.75h1.441V7.709c0.191-0.053,0.369-0.134,0.539-0.225
			l0.819,0.795l1.039-1.009L5.906,6.478C6,6.312,6.084,6.139,6.139,5.952h0.664v0.402h1.066v-0.76
			C8.01,5.556,8.141,5.497,8.268,5.43l0.604,0.58l0.77-0.735L9.031,4.69c0.066-0.12,0.129-0.244,0.168-0.377H10z M3.605,6.419
			c-0.664,0-1.202-0.522-1.202-1.166c0-0.644,0.538-1.166,1.202-1.166c0.664,0,1.201,0.522,1.201,1.166
			C4.807,5.896,4.269,6.419,3.605,6.419z M7.418,4.649c-0.49,0.045-0.922-0.298-0.967-0.766C6.406,3.416,6.766,3,7.254,2.956
			c0.488-0.044,0.922,0.298,0.967,0.766C8.266,4.189,7.904,4.605,7.418,4.649z"/>
	</g>
</g>
</svg>
