<?xml version="1.0" encoding="utf-8"?>
<!-- Generator: Adobe Illustrator 17.0.0, SVG Export Plug-In . SVG Version: 6.00 Build 0)  -->
<!DOCTYPE svg PUBLIC "-//W3C//DTD SVG 1.1//EN" "http://www.w3.org/Graphics/SVG/1.1/DTD/svg11.dtd">
<svg version="1.1" id="图层_1" xmlns="http://www.w3.org/2000/svg" xmlns:xlink="http://www.w3.org/1999/xlink" x="0px" y="0px"
	 width="10px" height="10px" viewBox="0 0 10 10" enable-background="new 0 0 10 10" xml:space="preserve">
<g>
	<g>
		<path fill="#fff" fill-rule="evenodd" clip-rule="evenodd" d="M7.982,0.364H1.935c-0.928,0-1.68,0.752-1.68,1.68v6.047
			c0,0.927,0.752,1.68,1.68,1.68h6.047c0.927,0,1.68-0.753,1.68-1.68V2.044C9.662,1.116,8.909,0.364,7.982,0.364z M6.39,2.818h2.045
			v0.409H6.39V2.818z M3.937,8.134c-1.355,0-2.454-0.7-2.454-1.563c0-0.704,0.733-1.292,1.736-1.489
			c-0.514-0.306-0.87-0.922-0.87-1.641c0-1.021,0.711-1.849,1.588-1.849c0.876,0,1.588,0.828,1.588,1.849
			c0,0.719-0.356,1.334-0.87,1.641C5.656,5.278,6.39,5.866,6.39,6.57C6.39,7.434,5.291,8.134,3.937,8.134z M8.845,6.499H6.799V6.09
			h2.046V6.499z M9.253,4.863H5.98V4.454h3.272V4.863z"/>
	</g>
</g>
</svg>
