<?xml version="1.0" encoding="utf-8"?>
<!-- Generator: Adobe Illustrator 17.0.0, SVG Export Plug-In . SVG Version: 6.00 Build 0)  -->
<!DOCTYPE svg PUBLIC "-//W3C//DTD SVG 1.1//EN" "http://www.w3.org/Graphics/SVG/1.1/DTD/svg11.dtd">
<svg version="1.1" id="图层_1" xmlns="http://www.w3.org/2000/svg" xmlns:xlink="http://www.w3.org/1999/xlink" x="0px" y="0px"
	 width="10px" height="10px" viewBox="0 0 10 10" enable-background="new 0 0 10 10" xml:space="preserve">
<g>
	<g>
		<path fill="#fff" fill-rule="evenodd" clip-rule="evenodd" d="M7.085,3.23C7.389,3.23,7.633,3,7.633,2.714V0.908
			c0-0.285-0.244-0.516-0.548-0.516c-0.305,0-0.549,0.231-0.549,0.516v1.806C6.536,3,6.78,3.23,7.085,3.23z M2.916,3.23
			C3.219,3.23,3.465,3,3.465,2.714V0.908c0-0.285-0.246-0.516-0.549-0.516c-0.303,0-0.548,0.231-0.548,0.516v1.806
			C2.368,3,2.613,3.23,2.916,3.23z M6.102,1.558H3.898v0.619h2.203V1.558z M8.514,1.558H8.287v0.619h0.227
			c0.238,0,0.439,0.189,0.439,0.413v1.247H1.048V2.59c0-0.224,0.201-0.413,0.438-0.413H1.92V1.558H1.487
			c-0.603,0-1.097,0.464-1.097,1.032v1.234v4.754c0,0.566,0.494,1.031,1.097,1.031h7.027c0.604,0,1.097-0.465,1.097-1.031V2.59
			C9.61,2.022,9.117,1.558,8.514,1.558z M5.872,8.123C5.316,8.482,4.84,8.988,4.783,9.193C4.716,8.984,4.289,8.492,3.688,8.133
			C3.069,7.764,2.139,7.416,2.146,6.49c0.013-1.686,1.951-2.024,2.633-0.572C5.43,4.523,7.401,4.79,7.414,6.48
			C7.421,7.406,6.479,7.73,5.872,8.123z"/>
	</g>
</g>
</svg>
