<?xml version="1.0" encoding="utf-8"?>
<!-- Generator: Adobe Illustrator 17.0.0, SVG Export Plug-In . SVG Version: 6.00 Build 0)  -->
<!DOCTYPE svg PUBLIC "-//W3C//DTD SVG 1.1//EN" "http://www.w3.org/Graphics/SVG/1.1/DTD/svg11.dtd">
<svg version="1.1" id="图层_1" xmlns="http://www.w3.org/2000/svg" xmlns:xlink="http://www.w3.org/1999/xlink" x="0px" y="0px"
	 width="10px" height="10px" viewBox="0 0 10 10" enable-background="new 0 0 10 10" xml:space="preserve">
<g>
	<g>
		<path d="M4.716,5.617c0.656-0.396,1.11-1.195,1.11-2.127c0-1.325-0.907-2.397-2.025-2.397c-1.119,0-2.026,1.073-2.026,2.397
			c0,0.932,0.454,1.73,1.11,2.127c-1.279,0.255-2.215,1.018-2.215,1.93c0,1.12,1.401,2.028,3.13,2.028
			c1.729,0,3.13-0.908,3.13-2.028C6.932,6.635,5.995,5.872,4.716,5.617z M9.684,1.991L9.74,1.419L9.162,1.44l0.121-1.015L8.73,0.446
			L8.611,1.461L7.746,1.493l0.092-1.014l-0.551,0.02L7.168,1.514L6.67,1.532L6.611,2.104l0.5-0.019L6.971,3.283l-0.55,0.021
			L6.363,3.875l0.551-0.021L6.793,4.844l0.58-0.021l0.119-0.989l0.867-0.032L8.238,4.791L8.816,4.77l0.096-0.988l0.523-0.02
			L9.492,3.19L8.994,3.208l0.113-1.196L9.684,1.991z M8.416,3.23L7.551,3.262l0.139-1.197l0.865-0.032L8.416,3.23z"/>
	</g>
</g>
</svg>
