<?xml version="1.0" encoding="utf-8"?>
<!-- Generator: Adobe Illustrator 17.0.0, SVG Export Plug-In . SVG Version: 6.00 Build 0)  -->
<!DOCTYPE svg PUBLIC "-//W3C//DTD SVG 1.1//EN" "http://www.w3.org/Graphics/SVG/1.1/DTD/svg11.dtd">
<svg version="1.1" id="图层_1" xmlns="http://www.w3.org/2000/svg" xmlns:xlink="http://www.w3.org/1999/xlink" x="0px" y="0px"
	 width="10px" height="10px" viewBox="0 0 10 10" enable-background="new 0 0 10 10" xml:space="preserve">
<g>
	<g>
		<path fill="#fff" fill-rule="evenodd" clip-rule="evenodd" d="M5.017,9.138l1.428-2.153L5.021,5.581L5.017,9.138z M9.659,5.31H5.035
			l2.311,2.279L9.659,5.31z M8.249,6.984L9.67,9.129V5.583L8.249,6.984z M7.347,7.873v0.002V7.873L6.558,7.097L5.196,9.153h-0.49
			V5.324C4.661,5.313,4.619,5.299,4.573,5.29c0.683-0.419,1.156-1.263,1.156-2.248c0-1.399-0.944-2.534-2.109-2.534
			c-1.164,0-2.108,1.135-2.108,2.534c0,0.985,0.473,1.829,1.155,2.248C1.335,5.56,0.361,6.366,0.361,7.33
			c0,1.185,1.459,2.143,3.258,2.143c0.622,0,1.198-0.12,1.692-0.319h4.185L8.135,7.097L7.347,7.873z"/>
	</g>
</g>
</svg>
